<svg width="1287.264892578125px" height="410.7448364257812px" xmlns="http://www.w3.org/2000/svg" viewBox="-393.6324462890625 -130.3724182128906 1287.264892578125 410.7448364257812" style="background: rgba(0, 0, 0, 0);" preserveAspectRatio="xMidYMid"><defs><linearGradient id="editing-gradient-gradient" x1="0" x2="1" y1="0.5" y2="0.5" gradientUnits="objectBoundingBox"><stop offset="0" stop-color="#f0f"></stop><stop offset="1" stop-color="#0ff"></stop></linearGradient></defs><g><g transform="translate(-217.10000610351562, 147.9000015258789)"><path d="M122.80-107L122.80-4.20L122.80-4.20Q120-1.40 114.70 0.10L114.70 0.10L114.70 0.10Q109.40 1.60 102 1.60L102 1.60L102 1.60Q94.60 1.60 88-0.60L88-0.60L88-0.60Q81.40-2.80 77.20-11.20L77.20-11.20L57.40-51.60L57.40-51.60Q54.40-57.80 52-63.30L52-63.30L52-63.30Q49.60-68.80 46.80-76L46.80-76L45.60-75.80L45.60-75.80Q46.40-65 46.50-53.80L46.50-53.80L46.50-53.80Q46.60-42.60 46.60-31.80L46.60-31.80L46.60-0.80L46.60-0.80Q44.40-0.20 39.90 0.40L39.90 0.40L39.90 0.40Q35.40 1 31 1L31 1L31 1Q26.60 1 23.20 0.40L23.20 0.40L23.20 0.40Q19.80-0.20 17.60-2L17.60-2L17.60-2Q15.40-3.80 14.20-6.90L14.20-6.90L14.20-6.90Q13-10 13-15L13-15L13-115L13-115Q15.80-119 21.60-121L21.60-121L21.60-121Q27.40-123 34-123L34-123L34-123Q41.40-123 48.10-120.70L48.10-120.70L48.10-120.70Q54.80-118.40 58.80-110.20L58.80-110.20L78.80-69.80L78.80-69.80Q81.80-63.60 84.20-58.10L84.20-58.10L84.20-58.10Q86.60-52.60 89.40-45.40L89.40-45.40L90.40-45.60L90.40-45.60Q89.60-56.40 89.40-67.20L89.40-67.20L89.40-67.20Q89.20-78 89.20-88.80L89.20-88.80L89.20-121.20L89.20-121.20Q91.40-121.80 95.90-122.40L95.90-122.40L95.90-122.40Q100.40-123 104.80-123L104.80-123L104.80-123Q113.60-123 118.20-119.90L118.20-119.90L118.20-119.90Q122.80-116.80 122.80-107L122.80-107ZM197.60 3.20L197.60 3.20L197.60 3.20Q185.80 3.20 175.70-0.10L175.70-0.10L175.70-0.10Q165.60-3.40 158.10-10L158.10-10L158.10-10Q150.60-16.60 146.30-26.60L146.30-26.60L146.30-26.60Q142-36.60 142-50L142-50L142-50Q142-63.20 146.30-72.70L146.30-72.70L146.30-72.70Q150.60-82.20 157.60-88.30L157.60-88.30L157.60-88.30Q164.60-94.40 173.60-97.30L173.60-97.30L173.60-97.30Q182.60-100.20 192-100.20L192-100.20L192-100.20Q202.60-100.20 211.30-97L211.30-97L211.30-97Q220-93.80 226.30-88.20L226.30-88.20L226.30-88.20Q232.60-82.60 236.10-74.80L236.10-74.80L236.10-74.80Q239.60-67 239.60-57.80L239.60-57.80L239.60-57.80Q239.60-51 235.80-47.40L235.80-47.40L235.80-47.40Q232-43.80 225.20-42.80L225.20-42.80L175.80-35.40L175.80-35.40Q178-28.80 184.80-25.50L184.80-25.50L184.80-25.50Q191.60-22.20 200.40-22.20L200.40-22.20L200.40-22.20Q208.60-22.20 215.90-24.30L215.90-24.30L215.90-24.30Q223.20-26.40 227.80-29.20L227.80-29.20L227.80-29.20Q231-27.20 233.20-23.60L233.20-23.60L233.20-23.60Q235.40-20 235.40-16L235.40-16L235.40-16Q235.40-7 227-2.60L227-2.60L227-2.60Q220.60 0.80 212.60 2L212.60 2L212.60 2Q204.60 3.20 197.60 3.20ZM192-75.40L192-75.40L192-75.40Q187.20-75.40 183.70-73.80L183.70-73.80L183.70-73.80Q180.20-72.20 178-69.70L178-69.70L178-69.70Q175.80-67.20 174.70-64.10L174.70-64.10L174.70-64.10Q173.60-61 173.40-57.80L173.40-57.80L207.60-63.40L207.60-63.40Q207-67.40 203.20-71.40L203.20-71.40L203.20-71.40Q199.40-75.40 192-75.40ZM290.60-116.20L290.60-0.20L290.60-0.20Q288.40 0.20 284.10 0.90L284.10 0.90L284.10 0.90Q279.80 1.60 275.40 1.60L275.40 1.60L275.40 1.60Q271 1.60 267.50 1L267.50 1L267.50 1Q264 0.40 261.60-1.40L261.60-1.40L261.60-1.40Q259.20-3.20 257.90-6.30L257.90-6.30L257.90-6.30Q256.60-9.40 256.60-14.40L256.60-14.40L256.60-130.40L256.60-130.40Q258.80-130.80 263.10-131.50L263.10-131.50L263.10-131.50Q267.40-132.20 271.80-132.20L271.80-132.20L271.80-132.20Q276.20-132.20 279.70-131.60L279.70-131.60L279.70-131.60Q283.20-131 285.60-129.20L285.60-129.20L285.60-129.20Q288-127.40 289.30-124.30L289.30-124.30L289.30-124.30Q290.60-121.20 290.60-116.20L290.60-116.20ZM412.60-48.60L412.60-48.60L412.60-48.60Q412.60-36.20 408.80-26.50L408.80-26.50L408.80-26.50Q405-16.80 398.10-10.20L398.10-10.20L398.10-10.20Q391.20-3.60 381.60-0.20L381.60-0.20L381.60-0.20Q372 3.20 360.20 3.20L360.20 3.20L360.20 3.20Q348.40 3.20 338.80-0.40L338.80-0.40L338.80-0.40Q329.20-4 322.30-10.70L322.30-10.70L322.30-10.70Q315.40-17.40 311.60-27L311.60-27L311.60-27Q307.80-36.60 307.80-48.60L307.80-48.60L307.80-48.60Q307.80-60.40 311.60-70L311.60-70L311.60-70Q315.40-79.60 322.30-86.30L322.30-86.30L322.30-86.30Q329.20-93 338.80-96.60L338.80-96.60L338.80-96.60Q348.40-100.20 360.20-100.20L360.20-100.20L360.20-100.20Q372-100.20 381.60-96.50L381.60-96.50L381.60-96.50Q391.20-92.80 398.10-86.10L398.10-86.10L398.10-86.10Q405-79.40 408.80-69.80L408.80-69.80L408.80-69.80Q412.60-60.20 412.60-48.60ZM342.60-48.60L342.60-48.60L342.60-48.60Q342.60-36.40 347.30-29.90L347.30-29.90L347.30-29.90Q352-23.40 360.40-23.40L360.40-23.40L360.40-23.40Q368.80-23.40 373.30-30L373.30-30L373.30-30Q377.80-36.60 377.80-48.60L377.80-48.60L377.80-48.60Q377.80-60.60 373.20-67.10L373.20-67.10L373.20-67.10Q368.60-73.60 360.20-73.60L360.20-73.60L360.20-73.60Q351.80-73.60 347.20-67.10L347.20-67.10L347.20-67.10Q342.60-60.60 342.60-48.60ZM493.60-96.80L493.60-96.80L493.60-96.80Q478.20-96.80 470-87.40L470-87.40L470-87.40Q461.80-78 461.80-60.80L461.80-60.80L461.80-60.80Q461.80-43.40 470.90-34L470.90-34L470.90-34Q480-24.60 495.40-24.60L495.40-24.60L495.40-24.60Q503.60-24.60 509.30-26.80L509.30-26.80L509.30-26.80Q515-29 520.20-31.80L520.20-31.80L520.20-31.80Q523.60-29 525.50-25.10L525.50-25.10L525.50-25.10Q527.40-21.20 527.40-16L527.40-16L527.40-16Q527.40-7.80 518.30-2.10L518.30-2.10L518.30-2.10Q509.20 3.60 490.60 3.60L490.60 3.60L490.60 3.60Q477.20 3.60 465.40-0.20L465.40-0.20L465.40-0.20Q453.60-4 444.80-11.90L444.80-11.90L444.80-11.90Q436-19.80 430.90-31.90L430.90-31.90L430.90-31.90Q425.80-44 425.80-60.80L425.80-60.80L425.80-60.80Q425.80-76.40 430.70-88.30L430.70-88.30L430.70-88.30Q435.60-100.20 444.10-108.40L444.10-108.40L444.10-108.40Q452.60-116.60 464-120.80L464-120.80L464-120.80Q475.40-125 488.40-125L488.40-125L488.40-125Q506.80-125 516.90-119L516.90-119L516.90-119Q527-113 527-103.60L527-103.60L527-103.60Q527-98.40 524.40-94.60L524.40-94.60L524.40-94.60Q521.80-90.80 518.40-88.60L518.40-88.60L518.40-88.60Q513.20-92 507.30-94.40L507.30-94.40L507.30-94.40Q501.40-96.80 493.60-96.80ZM639.40-60.80L639.40-0.20L639.40-0.20Q637.40 0.40 633.10 1L633.10 1L633.10 1Q628.80 1.60 624.20 1.60L624.20 1.60L624.20 1.60Q619.80 1.60 616.30 1L616.30 1L616.30 1Q612.80 0.40 610.40-1.40L610.40-1.40L610.40-1.40Q608-3.20 606.70-6.30L606.70-6.30L606.70-6.30Q605.40-9.40 605.40-14.40L605.40-14.40L605.40-58.80L605.40-58.80Q605.40-67 601.30-70.30L601.30-70.30L601.30-70.30Q597.20-73.60 591.20-73.60L591.20-73.60L591.20-73.60Q587.20-73.60 583.60-72.60L583.60-72.60L583.60-72.60Q580-71.60 577.80-70.20L577.80-70.20L577.80-0.20L577.80-0.20Q575.80 0.40 571.50 1L571.50 1L571.50 1Q567.20 1.60 562.60 1.60L562.60 1.60L562.60 1.60Q558.20 1.60 554.70 1L554.70 1L554.70 1Q551.20 0.40 548.80-1.40L548.80-1.40L548.80-1.40Q546.40-3.20 545.10-6.30L545.10-6.30L545.10-6.30Q543.80-9.40 543.80-14.40L543.80-14.40L543.80-130.40L543.80-130.40Q546-130.80 550.30-131.50L550.30-131.50L550.30-131.50Q554.60-132.20 559-132.20L559-132.20L559-132.20Q563.40-132.20 566.90-131.60L566.90-131.60L566.90-131.60Q570.40-131 572.80-129.20L572.80-129.20L572.80-129.20Q575.20-127.40 576.50-124.30L576.50-124.30L576.50-124.30Q577.80-121.20 577.80-116.20L577.80-116.20L577.80-96.60L577.80-96.60Q580.40-97.60 585.70-98.90L585.70-98.90L585.70-98.90Q591-100.20 597.40-100.20L597.40-100.20L597.40-100.20Q617.20-100.20 628.30-90.30L628.30-90.30L628.30-90.30Q639.40-80.40 639.40-60.80L639.40-60.80ZM702-21.60L702-21.60L702-21.60Q705.40-21.60 709.50-22.30L709.50-22.30L709.50-22.30Q713.60-23 715.60-24.20L715.60-24.20L715.60-40.20L701.20-39L701.20-39Q695.60-38.60 692-36.60L692-36.60L692-36.60Q688.40-34.60 688.40-30.60L688.40-30.60L688.40-30.60Q688.40-26.60 691.50-24.10L691.50-24.10L691.50-24.10Q694.60-21.60 702-21.60ZM700.40-100.20L700.40-100.20L700.40-100.20Q711.20-100.20 720.10-98L720.10-98L720.10-98Q729-95.80 735.30-91.30L735.30-91.30L735.30-91.30Q741.60-86.80 745-79.90L745-79.90L745-79.90Q748.40-73 748.40-63.60L748.40-63.60L748.40-18.80L748.40-18.80Q748.40-13.60 745.50-10.30L745.50-10.30L745.50-10.30Q742.60-7 738.60-4.60L738.60-4.60L738.60-4.60Q725.60 3.20 702 3.20L702 3.20L702 3.20Q691.40 3.20 682.90 1.20L682.90 1.20L682.90 1.20Q674.40-0.80 668.30-4.80L668.30-4.80L668.30-4.80Q662.20-8.80 658.90-15L658.90-15L658.90-15Q655.60-21.20 655.60-29.40L655.60-29.40L655.60-29.40Q655.60-43.20 663.80-50.60L663.80-50.60L663.80-50.60Q672-58 689.20-59.80L689.20-59.80L715.40-62.60L715.40-64L715.40-64Q715.40-69.80 710.30-72.30L710.30-72.30L710.30-72.30Q705.20-74.80 695.60-74.80L695.60-74.80L695.60-74.80Q688-74.80 680.80-73.20L680.80-73.20L680.80-73.20Q673.60-71.60 667.80-69.20L667.80-69.20L667.80-69.20Q665.20-71 663.40-74.70L663.40-74.70L663.40-74.70Q661.60-78.40 661.60-82.40L661.60-82.40L661.60-82.40Q661.60-87.60 664.10-90.70L664.10-90.70L664.10-90.70Q666.60-93.80 671.80-96L671.80-96L671.80-96Q677.60-98.20 685.50-99.20L685.50-99.20L685.50-99.20Q693.40-100.20 700.40-100.20ZM768.40-124.20L768.40-124.20L768.40-124.20Q768.40-131.80 773.50-137L773.50-137L773.50-137Q778.60-142.20 787-142.20L787-142.20L787-142.20Q795.40-142.20 800.50-137L800.50-137L800.50-137Q805.60-131.80 805.60-124.20L805.60-124.20L805.60-124.20Q805.60-116.60 800.50-111.40L800.50-111.40L800.50-111.40Q795.40-106.20 787-106.20L787-106.20L787-106.20Q778.60-106.20 773.50-111.40L773.50-111.40L773.50-111.40Q768.40-116.60 768.40-124.20ZM804-81.60L804-0.20L804-0.20Q801.80 0.20 797.50 0.90L797.50 0.90L797.50 0.90Q793.20 1.60 788.80 1.60L788.80 1.60L788.80 1.60Q784.40 1.60 780.90 1L780.90 1L780.90 1Q777.40 0.40 775-1.40L775-1.40L775-1.40Q772.60-3.20 771.30-6.30L771.30-6.30L771.30-6.30Q770-9.40 770-14.40L770-14.40L770-95.80L770-95.80Q772.20-96.20 776.50-96.90L776.50-96.90L776.50-96.90Q780.80-97.60 785.20-97.60L785.20-97.60L785.20-97.60Q789.60-97.60 793.10-97L793.10-97L793.10-97Q796.60-96.40 799-94.60L799-94.60L799-94.60Q801.40-92.80 802.70-89.70L802.70-89.70L802.70-89.70Q804-86.60 804-81.60L804-81.60ZM887.20-14.40L887.20-61.60L887.20-61.60Q887.20-67.80 883.70-70.70L883.70-70.70L883.70-70.70Q880.20-73.60 874.20-73.60L874.20-73.60L874.20-73.60Q870.20-73.60 866.30-72.60L866.30-72.60L866.30-72.60Q862.40-71.60 859.60-69.60L859.60-69.60L859.60-0.20L859.60-0.20Q857.60 0.40 853.30 1L853.30 1L853.30 1Q849.00 1.60 844.40 1.60L844.40 1.60L844.40 1.60Q840.00 1.60 836.50 1L836.50 1L836.50 1Q833.00 0.40 830.60-1.40L830.60-1.40L830.60-1.40Q828.20-3.20 826.90-6.30L826.90-6.30L826.90-6.30Q825.60-9.40 825.60-14.40L825.60-14.40L825.60-74.40L825.60-74.40Q825.60-79.80 827.90-83.20L827.90-83.20L827.90-83.20Q830.20-86.60 834.20-89.40L834.20-89.40L834.20-89.40Q841.00-94.20 851.30-97.20L851.30-97.20L851.30-97.20Q861.60-100.20 874.20-100.20L874.20-100.20L874.20-100.20Q896.80-100.20 909-90.30L909-90.30L909-90.30Q921.20-80.40 921.20-62.80L921.20-62.80L921.20-0.20L921.20-0.20Q919.20 0.40 914.90 1L914.90 1L914.90 1Q910.60 1.60 906 1.60L906 1.60L906 1.60Q901.60 1.60 898.10 1L898.10 1L898.10 1Q894.60 0.40 892.20-1.40L892.20-1.40L892.20-1.40Q889.80-3.20 888.50-6.30L888.50-6.30L888.50-6.30Q887.20-9.40 887.20-14.40L887.20-14.40Z" fill="url(#editing-gradient-gradient)"></path></g></g><style>text {
  font-size: 64px;
  font-family: Arial Black;
  dominant-baseline: central;
  text-anchor: middle;
}</style></svg>